<mxfile host="app.diagrams.net" modified="2023-12-14T14:35:51.052Z" agent="Mozilla/5.0 (Windows NT 10.0; Win64; x64) AppleWebKit/537.36 (KHTML, like Gecko) Chrome/120.0.0.0 Safari/537.36" etag="xoKBYsWnLLeh8iqeKF-Y" version="22.1.8" type="device">
  <diagram name="Pagina-1" id="uU6Ghi-izgu4RyXmWUg7">
    <mxGraphModel dx="1434" dy="746" grid="1" gridSize="10" guides="1" tooltips="1" connect="1" arrows="1" fold="1" page="1" pageScale="1" pageWidth="827" pageHeight="1169" math="0" shadow="0">
      <root>
        <mxCell id="0" />
        <mxCell id="1" parent="0" />
        <mxCell id="IV13zOwFfKd6qewWKF9J-1" value="" style="rounded=0;whiteSpace=wrap;html=1;" parent="1" vertex="1">
          <mxGeometry x="340" y="290" width="340" height="190" as="geometry" />
        </mxCell>
        <mxCell id="IV13zOwFfKd6qewWKF9J-2" value="CodeKataBattle platform" style="text;html=1;strokeColor=none;fillColor=none;align=center;verticalAlign=middle;whiteSpace=wrap;rounded=0;fontSize=21;fontStyle=1" parent="1" vertex="1">
          <mxGeometry x="480" y="310" width="60" height="30" as="geometry" />
        </mxCell>
        <mxCell id="gP7X1oc-JKgNC91yTBDF-2" style="edgeStyle=orthogonalEdgeStyle;rounded=0;orthogonalLoop=1;jettySize=auto;html=1;exitX=1;exitY=0.5;exitDx=0;exitDy=0;entryX=0.5;entryY=0;entryDx=0;entryDy=0;dashed=1;endArrow=openThin;endFill=0;" parent="1" source="IV13zOwFfKd6qewWKF9J-4" target="gP7X1oc-JKgNC91yTBDF-1" edge="1">
          <mxGeometry relative="1" as="geometry" />
        </mxCell>
        <mxCell id="gP7X1oc-JKgNC91yTBDF-3" value="&amp;lt;&amp;lt;include&amp;gt;&amp;gt;" style="edgeLabel;html=1;align=center;verticalAlign=middle;resizable=0;points=[];fontSize=14;" parent="gP7X1oc-JKgNC91yTBDF-2" vertex="1" connectable="0">
          <mxGeometry x="-0.0667" relative="1" as="geometry">
            <mxPoint x="-3" as="offset" />
          </mxGeometry>
        </mxCell>
        <mxCell id="IV13zOwFfKd6qewWKF9J-4" value="Inform of a new push" style="ellipse;whiteSpace=wrap;html=1;fontSize=14;" parent="1" vertex="1">
          <mxGeometry x="355" y="360" width="140" height="60" as="geometry" />
        </mxCell>
        <mxCell id="IV13zOwFfKd6qewWKF9J-9" style="edgeStyle=orthogonalEdgeStyle;rounded=0;orthogonalLoop=1;jettySize=auto;html=1;entryX=0;entryY=0.5;entryDx=0;entryDy=0;exitX=0.5;exitY=0.5;exitDx=0;exitDy=0;exitPerimeter=0;" parent="1" source="IV13zOwFfKd6qewWKF9J-5" target="IV13zOwFfKd6qewWKF9J-4" edge="1">
          <mxGeometry relative="1" as="geometry">
            <Array as="points" />
          </mxGeometry>
        </mxCell>
        <mxCell id="IV13zOwFfKd6qewWKF9J-12" value="+initiate" style="edgeLabel;html=1;align=center;verticalAlign=middle;resizable=0;points=[];fontSize=14;" parent="IV13zOwFfKd6qewWKF9J-9" vertex="1" connectable="0">
          <mxGeometry x="0.396" relative="1" as="geometry">
            <mxPoint x="-18" as="offset" />
          </mxGeometry>
        </mxCell>
        <mxCell id="IV13zOwFfKd6qewWKF9J-5" value="GitHub" style="shape=umlActor;verticalLabelPosition=bottom;verticalAlign=top;html=1;outlineConnect=0;" parent="1" vertex="1">
          <mxGeometry x="240" y="360" width="30" height="60" as="geometry" />
        </mxCell>
        <mxCell id="gP7X1oc-JKgNC91yTBDF-1" value="Authentication" style="ellipse;whiteSpace=wrap;html=1;fontSize=14;" parent="1" vertex="1">
          <mxGeometry x="530" y="410" width="140" height="60" as="geometry" />
        </mxCell>
      </root>
    </mxGraphModel>
  </diagram>
</mxfile>
